<svg xmlns="http://www.w3.org/2000/svg" width="10" height="10" viewBox="0 0 10 10" fill="none">
    <path d="M6.33382 5L9.22376 2.11006C9.59208 1.74174 9.59208 1.14457 9.22376 0.776243C8.85543 0.407919 8.25826 0.407919 7.88994 0.776243L5 3.66618L2.11006 0.776243C1.74174 0.40792 1.14457 0.40792 0.776243 0.776243C0.407919 1.14457 0.407919 1.74174 0.776243 2.11006L3.66618 5L0.776243 7.88994C0.407919 8.25826 0.407919 8.85543 0.776243 9.22376C1.14457 9.59208 1.74174 9.59208 2.11006 9.22376L5 6.33382L7.88994 9.22376C8.25826 9.59208 8.85543 9.59208 9.22376 9.22376C9.59208 8.85543 9.59208 8.25826 9.22376 7.88994L6.33382 5Z" fill="white"/>
</svg>
