<svg xmlns="http://www.w3.org/2000/svg" width="24" height="24" viewBox="0 0 24 24">
    <path fill-rule="evenodd" clip-rule="evenodd" d="M13 18.9746V15.7676C14.524 15.8536 15.954 16.2676 17.183 16.9966C16.107 18.1156 14.639 18.8496 13 18.9746ZM7.769 16.9426C9.006 16.2356 10.475 15.8246 12 15.7586V18.9746C10.336 18.8476 8.848 18.0916 7.769 16.9426ZM12 6.0256V9.0956C10.495 9.0356 9.082 8.6476 7.853 7.9636C8.925 6.8666 10.38 6.1496 12 6.0256ZM13 11.9996V10.0836C14.728 9.9936 16.353 9.5196 17.746 8.6786C18.438 9.6256 18.88 10.7636 18.975 11.9996H13ZM13 12.9996H18.975C18.884 14.1876 18.475 15.2866 17.829 16.2116C16.417 15.3426 14.76 14.8586 13 14.7686V12.9996ZM12 12.9996V14.7586C10.226 14.8256 8.558 15.2996 7.128 16.1546C6.506 15.2426 6.114 14.1626 6.025 12.9996H12ZM12 11.9996H6.025C6.118 10.7936 6.539 9.6806 7.203 8.7466C8.617 9.5716 10.256 10.0326 12 10.0956V11.9996ZM13 6.0256C14.589 6.1476 16.021 6.8376 17.087 7.8996C15.891 8.5886 14.475 8.9956 13 9.0826V6.0256ZM12.5 4.9996C8.364 4.9996 5 8.3646 5 12.4996C5 16.6356 8.364 19.9996 12.5 19.9996C16.636 19.9996 20 16.6356 20 12.4996C20 8.3646 16.636 4.9996 12.5 4.9996Z" />
</svg>
